<svg xmlns="http://www.w3.org/2000/svg" width="66.707" height="57" viewBox="0 0 66.707 57"><defs><style>.a{fill:#005f89;}</style></defs><g transform="translate(-7.3 -25.26)"><path class="a" d="M60.2,63.986a26.466,26.466,0,1,1,.308-19.669h2.175A28.506,28.506,0,1,0,62.4,63.983H60.2Z"/><g transform="translate(20.041 48.137)"><path class="a" d="M66.858,135.291a4.719,4.719,0,0,1,1.1,3.3c0,.215,0,.382-.015.494h-5.8a2,2,0,0,0,.695,1.089,1.922,1.922,0,0,0,1.2.379,2.608,2.608,0,0,0,1.042-.215,2.9,2.9,0,0,0,.918-.634l1.436,1.436a4.232,4.232,0,0,1-1.566,1.1,5.411,5.411,0,0,1-2.077.379,4.962,4.962,0,0,1-2.347-.526,3.663,3.663,0,0,1-1.537-1.48,4.506,4.506,0,0,1-.533-2.224,4.612,4.612,0,0,1,.541-2.261,3.717,3.717,0,0,1,1.529-1.512,4.741,4.741,0,0,1,2.285-.533A4.011,4.011,0,0,1,66.858,135.291Zm-1.573,2.33a1.6,1.6,0,0,0-.426-1.165,1.612,1.612,0,0,0-2.207-.007,2.157,2.157,0,0,0-.58,1.172Z" transform="translate(-59.37 -130.336)"/><path class="a" d="M104.649,134.813a2.781,2.781,0,0,1,.971,2.232v5.435h-2.7v-.942a3,3,0,0,1-2.515,1.064,2.938,2.938,0,0,1-2.092-.717,2.472,2.472,0,0,1-.763-1.892,2.242,2.242,0,0,1,.825-1.852,3.76,3.76,0,0,1,2.369-.678h2.178v-.093a1.112,1.112,0,0,0-.409-.925,1.873,1.873,0,0,0-1.182-.325,4.8,4.8,0,0,0-1.182.169,6.786,6.786,0,0,0-1.319.494l-.756-1.852a10.887,10.887,0,0,1,1.953-.688,8.271,8.271,0,0,1,1.938-.223A4.084,4.084,0,0,1,104.649,134.813Zm-2.315,5.621a1.308,1.308,0,0,0,.587-.781v-.727h-1.637q-1.156,0-1.157.864a.856.856,0,0,0,.3.688,1.24,1.24,0,0,0,.825.254A1.921,1.921,0,0,0,102.334,140.433Z" transform="translate(-88.207 -130.283)"/><path class="a" d="M138.549,135.864a1.075,1.075,0,0,0-.57.132.429.429,0,0,0-.215.394.505.505,0,0,0,.34.448,6.185,6.185,0,0,0,1.082.369,13.477,13.477,0,0,1,1.49.516,2.713,2.713,0,0,1,1.025.771,2.034,2.034,0,0,1,.433,1.351,2.326,2.326,0,0,1-.981,1.984,4.212,4.212,0,0,1-2.555.717,6.86,6.86,0,0,1-2.038-.3,5.416,5.416,0,0,1-1.73-.888l.864-1.774a5.968,5.968,0,0,0,1.49.763,4.474,4.474,0,0,0,1.476.269,1.361,1.361,0,0,0,.641-.13.414.414,0,0,0,.24-.379.522.522,0,0,0-.347-.477,6.547,6.547,0,0,0-1.089-.37,12.045,12.045,0,0,1-1.451-.516,2.721,2.721,0,0,1-1-.763,2,2,0,0,1-.423-1.329,2.342,2.342,0,0,1,.957-1.984,4,4,0,0,1,2.469-.717,6.731,6.731,0,0,1,3.475.971l-.927,1.791A6.146,6.146,0,0,0,138.549,135.864Z" transform="translate(-116.365 -130.231)"/><path class="a" d="M172.773,119.159a1.562,1.562,0,0,1,0,2.107,1.514,1.514,0,0,1-2.085,0,1.562,1.562,0,0,1,0-2.107,1.534,1.534,0,0,1,2.085,0Zm-2.386,3.436h2.733v8.352h-2.733Z" transform="translate(-143.141 -118.75)"/><path class="a" d="M192.513,119.159a1.562,1.562,0,0,1,0,2.107,1.514,1.514,0,0,1-2.085,0,1.562,1.562,0,0,1,0-2.107,1.534,1.534,0,0,1,2.085,0Zm-2.386,3.436h2.733v8.352h-2.733Z" transform="translate(-158.05 -118.75)"/><path class="a" d="M210.528,158.549a1.293,1.293,0,0,1,.369.957,1.327,1.327,0,0,1-.369.964,1.281,1.281,0,0,1-.957.379,1.263,1.263,0,0,1-.942-.379,1.444,1.444,0,0,1-.007-1.921,1.268,1.268,0,0,1,.949-.369A1.3,1.3,0,0,1,210.528,158.549Z" transform="translate(-171.827 -148.532)"/><path class="a" d="M227.713,119.159a1.562,1.562,0,0,1,0,2.107,1.514,1.514,0,0,1-2.085,0,1.562,1.562,0,0,1,0-2.107,1.534,1.534,0,0,1,2.085,0Zm-2.386,3.436h2.733v8.352h-2.733Z" transform="translate(-184.637 -118.75)"/><path class="a" d="M249.577,134.6a3.89,3.89,0,0,1,1.605,1.5,4.287,4.287,0,0,1,.57,2.229,4.342,4.342,0,0,1-.57,2.246,3.89,3.89,0,0,1-1.605,1.5,5.635,5.635,0,0,1-4.786,0,3.842,3.842,0,0,1-1.6-1.5,4.73,4.73,0,0,1,0-4.476,3.842,3.842,0,0,1,1.6-1.5,5.635,5.635,0,0,1,4.786,0Zm-3.688,2.263a2.538,2.538,0,0,0,0,3.01,1.625,1.625,0,0,0,1.3.57,1.649,1.649,0,0,0,1.312-.57,2.229,2.229,0,0,0,.494-1.512,2.186,2.186,0,0,0-.5-1.5,1.65,1.65,0,0,0-1.3-.57A1.625,1.625,0,0,0,245.889,136.867Z" transform="translate(-197.787 -130.321)"/></g></g></svg>