<svg xmlns="http://www.w3.org/2000/svg" width="93.624" height="80" viewBox="0 0 93.624 80"><defs><style>.a{fill:#fff;}</style></defs><g transform="translate(-7.3 -25.26)"><path class="a" d="M81.551,79.612a37.145,37.145,0,1,1,.433-27.605h3.053a40.008,40.008,0,1,0-.409,27.6H81.551Z"/><g transform="translate(25.183 57.368)"><path class="a" d="M69.879,135.776a6.623,6.623,0,0,1,1.539,4.636c0,.3-.007.536-.021.694H63.251a2.81,2.81,0,0,0,.975,1.528,2.7,2.7,0,0,0,1.69.532,3.66,3.66,0,0,0,1.463-.3,4.074,4.074,0,0,0,1.288-.889l2.016,2.016a5.939,5.939,0,0,1-2.2,1.549,7.6,7.6,0,0,1-2.916.532,6.964,6.964,0,0,1-3.294-.738,5.141,5.141,0,0,1-2.157-2.078,6.323,6.323,0,0,1-.749-3.122,6.473,6.473,0,0,1,.759-3.173,5.217,5.217,0,0,1,2.146-2.122,6.654,6.654,0,0,1,3.208-.749A5.63,5.63,0,0,1,69.879,135.776Zm-2.208,3.27a2.249,2.249,0,0,0-.6-1.635,2.263,2.263,0,0,0-3.1-.01,3.027,3.027,0,0,0-.814,1.645Z" transform="translate(-59.37 -128.822)"/><path class="a" d="M107.513,135.133a3.9,3.9,0,0,1,1.363,3.132v7.628h-3.788V144.57a4.208,4.208,0,0,1-3.531,1.494,4.123,4.123,0,0,1-2.936-1.006A3.47,3.47,0,0,1,97.55,142.4a3.147,3.147,0,0,1,1.157-2.6,5.277,5.277,0,0,1,3.324-.951h3.057v-.13a1.561,1.561,0,0,0-.574-1.3,2.629,2.629,0,0,0-1.659-.457,6.736,6.736,0,0,0-1.659.237,9.526,9.526,0,0,0-1.851.694l-1.061-2.6a15.281,15.281,0,0,1,2.741-.965,11.609,11.609,0,0,1,2.72-.313A5.732,5.732,0,0,1,107.513,135.133Zm-3.249,7.889a1.836,1.836,0,0,0,.824-1.1v-1.02h-2.3q-1.623,0-1.624,1.212a1.2,1.2,0,0,0,.422.965,1.74,1.74,0,0,0,1.157.357A2.7,2.7,0,0,0,104.264,143.021Z" transform="translate(-84.438 -128.776)"/><path class="a" d="M140.05,136.636a1.508,1.508,0,0,0-.8.185.6.6,0,0,0-.3.553.709.709,0,0,0,.477.628,8.68,8.68,0,0,0,1.518.519,18.913,18.913,0,0,1,2.092.725,3.808,3.808,0,0,1,1.439,1.082,2.855,2.855,0,0,1,.608,1.9,3.265,3.265,0,0,1-1.377,2.785,5.911,5.911,0,0,1-3.585,1.006,9.628,9.628,0,0,1-2.861-.422,7.6,7.6,0,0,1-2.428-1.247l1.212-2.49a8.377,8.377,0,0,0,2.092,1.072,6.279,6.279,0,0,0,2.071.378,1.91,1.91,0,0,0,.9-.182.58.58,0,0,0,.337-.532.732.732,0,0,0-.488-.67,9.19,9.19,0,0,0-1.528-.519,16.9,16.9,0,0,1-2.037-.725,3.819,3.819,0,0,1-1.4-1.072,2.812,2.812,0,0,1-.594-1.865,3.287,3.287,0,0,1,1.343-2.785,5.613,5.613,0,0,1,3.465-1.006,9.447,9.447,0,0,1,4.877,1.363l-1.3,2.514A8.626,8.626,0,0,0,140.05,136.636Z" transform="translate(-108.914 -128.73)"/><path class="a" d="M173.78,119.324a2.192,2.192,0,0,1,0,2.957,2.125,2.125,0,0,1-2.926,0,2.192,2.192,0,0,1,0-2.957,2.153,2.153,0,0,1,2.926,0Zm-3.349,4.822h3.836v11.721h-3.836Z" transform="translate(-132.19 -118.75)"/><path class="a" d="M193.52,119.324a2.192,2.192,0,0,1,0,2.957,2.125,2.125,0,0,1-2.926,0,2.192,2.192,0,0,1,0-2.957,2.153,2.153,0,0,1,2.926,0Zm-3.349,4.822h3.836v11.721h-3.836Z" transform="translate(-145.15 -118.75)"/><path class="a" d="M211.444,158.7a1.814,1.814,0,0,1,.519,1.343,1.863,1.863,0,0,1-.519,1.353,1.8,1.8,0,0,1-1.343.532,1.773,1.773,0,0,1-1.322-.532,2.026,2.026,0,0,1-.01-2.7,1.78,1.78,0,0,1,1.333-.519A1.82,1.82,0,0,1,211.444,158.7Z" transform="translate(-157.126 -144.638)"/><path class="a" d="M228.72,119.324a2.192,2.192,0,0,1,0,2.957,2.125,2.125,0,0,1-2.926,0,2.192,2.192,0,0,1,0-2.957,2.153,2.153,0,0,1,2.926,0Zm-3.348,4.822h3.836v11.721h-3.836Z" transform="translate(-168.261 -118.75)"/><path class="a" d="M252.38,134.819a5.46,5.46,0,0,1,2.253,2.1,6.017,6.017,0,0,1,.8,3.129,6.1,6.1,0,0,1-.8,3.153,5.46,5.46,0,0,1-2.253,2.1,7.909,7.909,0,0,1-6.718,0,5.392,5.392,0,0,1-2.243-2.1,6.639,6.639,0,0,1,0-6.281,5.392,5.392,0,0,1,2.243-2.1,7.909,7.909,0,0,1,6.718,0ZM247.2,138a3.562,3.562,0,0,0,0,4.224,2.281,2.281,0,0,0,1.82.8,2.315,2.315,0,0,0,1.841-.8,3.128,3.128,0,0,0,.694-2.122,3.068,3.068,0,0,0-.7-2.1,2.316,2.316,0,0,0-1.831-.8A2.281,2.281,0,0,0,247.2,138Z" transform="translate(-179.692 -128.809)"/></g></g></svg>