<svg xmlns="http://www.w3.org/2000/svg" width="54" height="44.406" viewBox="0 0 54 44.406"><defs><style>.a{fill:#16b979;}.b{fill:#fff;fill-rule:evenodd;}</style></defs><path class="a" d="M2,30.748A10.516,10.516,0,0,0,12.692,41.44,10.516,10.516,0,0,0,23.384,30.748a10.3,10.3,0,0,0-5.728-9.419L24.784,3H14.728L5.309,21.329C3.146,25.529,2,28.2,2,30.748Zm27.239,0A10.516,10.516,0,0,0,39.93,41.44,10.44,10.44,0,0,0,50.622,30.748a10.3,10.3,0,0,0-5.728-9.419L52.022,3H41.967L32.548,21.329C30.384,25.529,29.239,28.2,29.239,30.748Z" transform="translate(1.978 2.966)"/><path class="b" d="M13.135,19.323,19.876,1.989H13.942L5.078,19.238c-2.2,4.264-3.089,6.52-3.089,8.51a8.529,8.529,0,0,0,8.7,8.7,8.529,8.529,0,0,0,8.7-8.7,8.317,8.317,0,0,0-4.6-7.627ZM12.728,0H22.784L15.656,18.329a10.3,10.3,0,0,1,5.728,9.419A10.516,10.516,0,0,1,10.692,38.44,10.516,10.516,0,0,1,0,27.748c0-2.546,1.146-5.219,3.309-9.419ZM40.374,19.323,47.115,1.989H41.181L32.317,19.238c-2.2,4.264-3.089,6.52-3.089,8.51a8.528,8.528,0,0,0,8.7,8.7,8.454,8.454,0,0,0,8.7-8.7,8.317,8.317,0,0,0-4.6-7.627ZM39.967,0H50.022L42.895,18.329a10.3,10.3,0,0,1,5.728,9.419A10.44,10.44,0,0,1,37.93,38.44,10.516,10.516,0,0,1,27.239,27.748c0-2.546,1.146-5.219,3.309-9.419Z"/></svg>